<?xml version="1.0" standalone="no"?><!DOCTYPE svg PUBLIC "-//W3C//DTD SVG 1.1//EN" "http://www.w3.org/Graphics/SVG/1.1/DTD/svg11.dtd"><svg t="1691133869910" class="icon" viewBox="0 0 1041 1024" version="1.1" xmlns="http://www.w3.org/2000/svg" p-id="2269" xmlns:xlink="http://www.w3.org/1999/xlink" width="203.3203125" height="200"><path d="M519.140222 1.93469C232.06909 1.93469 0 235.714624 0 524.932281c0 231.187102 148.694664 426.882159 354.973577 496.144778 25.790177 5.206917 35.237012-11.253316 35.237012-25.099464 0-12.124677-0.850109-53.684374-0.850109-96.986793-144.412241 31.177742-174.484842-62.344858-174.484842-62.344858-23.207972-60.612761-57.594875-76.191006-57.594874-76.191006-47.266052-32.038477 3.442941-32.038477 3.442941-32.038477 52.430463 3.464194 79.942111 53.684374 79.942111 53.684374 46.405317 79.655199 121.183017 57.148567 151.266243 43.291793 4.29305-33.770574 18.054187-57.148567 32.665433-70.13398-115.179123-12.124677-236.36214-57.148567-236.36214-258.039916 0-57.148567 20.61514-103.904554 53.280573-140.26796-5.153785-12.985413-23.207972-66.680413 5.164411-138.54649 0 0 43.833738-13.856774 142.669518 53.684374a499.120159 499.120159 0 0 1 129.790368-17.320968c43.833738 0 88.517584 6.067652 129.779743 17.320968 98.846407-67.541148 142.680144-53.684374 142.680144-53.684374 28.372383 71.866077 10.30757 125.561077 5.153785 138.54649 33.526168 36.363406 53.291199 83.119393 53.291199 140.26796 0 200.891348-121.183017 245.043876-237.222875 258.039916 18.914922 16.449606 35.237012 47.616722 35.237012 96.976167 0 70.13398-0.850109 126.421812-0.850109 143.732154 0 13.856774 9.457461 30.317007 35.237012 25.120716 206.278913-69.283871 354.973577-264.968302 354.973577-496.155404C1038.269819 235.714624 805.35062 1.93469 519.140222 1.93469z" fill="#24292F" p-id="2270"></path></svg>